<svg width="94" height="95" viewBox="0 0 94 95" fill="none" xmlns="http://www.w3.org/2000/svg">
<circle cx="47.2799" cy="47.6004" r="46.631" fill="#23A26D" fill-opacity="0.12"/>
<path d="M46.4474 25.3952C34.2123 25.3952 24.2422 35.3653 24.2422 47.6004C24.2422 59.8355 34.2123 69.8056 46.4474 69.8056C58.6825 69.8056 68.6526 59.8355 68.6526 47.6004C68.6526 35.3653 58.6825 25.3952 46.4474 25.3952ZM57.0615 42.4932L44.4712 55.0836C44.1603 55.3944 43.7384 55.5721 43.2943 55.5721C42.8502 55.5721 42.4283 55.3944 42.1174 55.0836L35.8333 48.7995C35.1894 48.1555 35.1894 47.0897 35.8333 46.4457C36.4773 45.8018 37.5431 45.8018 38.1871 46.4457L43.2943 51.5529L54.7078 40.1394C55.3517 39.4955 56.4176 39.4955 57.0615 40.1394C57.7055 40.7834 57.7055 41.827 57.0615 42.4932Z" fill="#23A26D"/>
</svg>
